# xmcd
#
# Track frame offsets:
#	150
#	8707
#	15223
#	25900
#	36328
#	42362
#	53242
#	58451
#	70865
#	80227
#	93118
#	104082
#	112389
#	124484
#	134862
#	147327
#	155508
#	167973
#	178874
#	183192
#
# Disc length: 2498 seconds
# Revision: 0
# Processed by: cddbd v1.5.2PL0 Copyright (c) Steve Scherf et al.
# Submitted via: dBpowerAMP V12.0
#
DISCID=2e09c014
DTITLE=Dale Potter - Hoe Down!, Vol. 1
DYEAR=2014
DGENRE=Country
TTITLE0=Draggin' the Bow
TTITLE1=Bully of the Town
TTITLE2=Let Me Call You Sweetheart
TTITLE3=In the Garden
TTITLE4=Rubber Dolly
TTITLE5=Faded Love
TTITLE6=Beaumont Rag
TTITLE7=Maiden's Prayer
TTITLE8=Hawaiian Sunset
TTITLE9=Westphalia Waltz
TTITLE10=New Carrol Country Blues
TTITLE11=Twinkle Star
TTITLE12=Silver Threads Among the Gold
TTITLE13=Big Ball In Town
TTITLE14=Aloha Oe
TTITLE15=Omie Wise's Tragic Romance
TTITLE16=Precious Memories
TTITLE17=Spanish Two-Step
TTITLE18=Don't Let the Deal Go Down
TTITLE19=Gotta Travel On
EXTD=
EXTT0=
EXTT1=
EXTT2=
EXTT3=
EXTT4=
EXTT5=
EXTT6=
EXTT7=
EXTT8=
EXTT9=
EXTT10=
EXTT11=
EXTT12=
EXTT13=
EXTT14=
EXTT15=
EXTT16=
EXTT17=
EXTT18=
EXTT19=
PLAYORDER=
